<svg width="37" height="37" viewBox="0 0 37 37" fill="none" xmlns="http://www.w3.org/2000/svg">
<path d="M32.014 0H4.98586C2.2323 0 0 2.23219 0 4.98582V32.014C0 34.7676 2.23221 36.9998 4.98586 36.9998H18.316L18.3388 23.7781H14.9037C14.4573 23.7781 14.095 23.4171 14.0933 22.9707L14.0768 18.7088C14.0751 18.26 14.4385 17.8952 14.8873 17.8952H18.3161V13.7771C18.3161 8.99811 21.2349 6.3959 25.4981 6.3959H28.9964C29.444 6.3959 29.8069 6.75876 29.8069 7.20643V10.8001C29.8069 11.2476 29.4442 11.6104 28.9968 11.6106L26.85 11.6116C24.5315 11.6116 24.0826 12.7133 24.0826 14.3301V17.8953H29.177C29.6625 17.8953 30.0391 18.3192 29.9819 18.8012L29.4767 23.0631C29.4284 23.471 29.0825 23.7783 28.6719 23.7783H24.1053L24.0826 37H32.0142C34.7678 37 37 34.7678 37 32.0143V4.98582C36.9999 2.23219 34.7677 0 32.014 0Z" fill="white"/>
</svg>
