<svg width="37" height="36" viewBox="0 0 37 36" fill="none" xmlns="http://www.w3.org/2000/svg">
<path d="M36.9824 18.3368C36.9824 16.8619 36.8565 15.7856 36.584 14.6694H18.8686V21.3264H29.2671C29.0576 22.9808 27.9255 25.4722 25.4096 27.1463L25.3743 27.3692L30.9757 31.4945L31.3637 31.5313C34.9277 28.4021 36.9824 23.7979 36.9824 18.3368Z" fill="#4285F4"/>
<path d="M18.8685 35.8763C23.963 35.8763 28.2398 34.2817 31.3637 31.5313L25.4096 27.1463C23.8163 28.2027 21.6778 28.9401 18.8685 28.9401C13.8789 28.9401 9.64397 25.811 8.13434 21.4859L7.91306 21.5038L2.08874 25.789L2.01257 25.9903C5.11537 31.8501 11.4888 35.8763 18.8685 35.8763Z" fill="#34A853"/>
<path d="M8.13436 21.486C7.73603 20.3698 7.50551 19.1739 7.50551 17.9382C7.50551 16.7024 7.73604 15.5065 8.11341 14.3904L8.10286 14.1527L2.20555 9.7986L2.0126 9.88585C0.733785 12.3175 0 15.0481 0 17.9382C0 20.8282 0.733785 23.5587 2.0126 25.9904L8.13436 21.486Z" fill="#FBBC05"/>
<path d="M18.8685 6.93605C22.4116 6.93605 24.8015 8.39102 26.1643 9.60692L31.4894 4.66392C28.219 1.77389 23.963 0 18.8685 0C11.4888 0 5.11537 4.02609 2.01257 9.88585L8.11338 14.3904C9.64397 10.0653 13.8789 6.93605 18.8685 6.93605Z" fill="#EB4335"/>
</svg>
