<svg width="76" height="72" viewBox="0 0 76 72" fill="none" xmlns="http://www.w3.org/2000/svg">
<path d="M50.4613 48.9339C45.8276 55.573 34.5578 59.0519 25.5886 60.8879C23.5063 52.8571 26.9398 45.095 31.5736 38.4559C36.2073 31.8169 45.0472 28.1375 54.0161 26.3015C56.0986 34.3322 55.0951 42.2948 50.4613 48.9339Z" fill="#009B5E"/>
<path d="M36.3176 40.3718C28.1411 42.1755 17.8303 37.2708 10.3296 32.6835C14.9811 25.4154 23.1886 21.9941 31.3652 20.1906C39.5417 18.3869 48.348 21.5367 55.8487 26.1243C51.1969 33.3921 44.4942 38.5681 36.3176 40.3718Z" fill="#00B972"/>
<path d="M67.1482 21.1831C56.632 28.4279 37.4709 34.1835 24.435 34.0135C23.4097 34.0005 22.6147 33.2383 22.659 32.312C22.7033 31.3856 23.5706 30.6455 24.5956 30.6588C36.9113 30.8194 55.0134 25.3818 64.9485 18.5374C65.4873 18.1661 66.1683 18.0921 66.7458 18.2876C67.0548 18.3921 67.3339 18.5739 67.5459 18.8286C68.1533 19.5591 67.9754 20.6132 67.1482 21.1831Z" fill="#009B5E"/>
</svg>
