<svg width="410" height="372" viewBox="0 0 410 372" fill="none" xmlns="http://www.w3.org/2000/svg">
<path d="M410 186C410 288.725 318.218 372 205 372C91.7815 372 0 288.725 0 186C0 83.275 91.7815 0 205 0C318.218 0 410 83.275 410 186Z" fill="#EAD000"/>
<path d="M364.628 186C364.628 265.989 293.16 330.833 205 330.833C116.841 330.833 45.3724 265.989 45.3724 186C45.3724 106.01 116.84 41.1669 205 41.1669C293.161 41.1669 364.628 106.01 364.628 186Z" fill="#FFEA00"/>
<path d="M210.865 86.5844C219.293 63.2763 252.114 45.6637 279.142 34.5248C293.644 58.0262 290.164 84.0654 281.736 107.374C273.308 130.682 248.489 147.43 221.461 158.569C206.959 135.067 202.437 109.893 210.865 86.5844Z" fill="#00B972"/>
<path d="M183.229 329.315C160.918 343.171 123.058 339.047 94.1344 332.98C98.3697 306.322 118.582 287.568 140.894 273.712C163.204 259.856 194.132 260.253 223.055 266.32C218.82 292.978 205.54 315.46 183.229 329.315Z" fill="#009B5E"/>
<path d="M222.413 85.6253C241.106 67.9022 279.092 64.8724 308.771 65.4116C310.67 92.2908 295.141 114.415 276.447 132.138C257.755 149.861 227.399 155.245 197.719 154.706C195.821 127.827 203.72 103.348 222.413 85.6253Z" fill="#00D683"/>
<path d="M222.262 117.425C228.445 129.566 231.895 143.088 231.895 157.341C231.895 205.224 192.958 244.856 142.244 251.593C91.3651 244.801 52.1564 204.589 52.52 156.671C52.6281 142.453 56.1683 128.976 62.4272 116.886C70.1083 102.049 75.7482 86.4325 79.8426 70.4663C88.0539 38.4416 108.752 13.3353 134.831 3.96987C139.571 2.26753 144.841 2.26753 149.581 3.96987C175.97 13.4457 196.85 39.0403 204.858 71.6099C208.745 87.4257 214.771 102.717 222.262 117.425Z" fill="#009B5E"/>
<path d="M151.274 250.023C143.218 251.76 134.802 252.656 126.146 252.601C68.4101 252.233 21.5132 209.057 21.9103 156.672C22.0184 142.379 25.5963 128.835 31.9169 116.696C39.602 101.937 45.1562 86.3665 49.233 70.4678C59.7104 29.6023 90.5221 0 126.902 0C135.37 0 143.537 1.60425 151.216 4.58098C125.909 14.3925 105.901 39.1152 97.862 70.4678C93.7853 86.3665 88.231 101.937 80.5459 116.696C74.2254 128.835 70.6475 142.379 70.5394 156.672C70.1974 201.726 104.84 239.968 151.274 250.023Z" fill="#007E4B"/>
<path d="M126.901 168.083C126.901 180.48 119.543 190.53 110.467 190.53C101.39 190.53 94.0323 180.48 94.0323 168.083C94.0323 155.686 101.391 145.637 110.467 145.637C119.543 145.637 126.901 155.686 126.901 168.083ZM138.911 128.615C134.373 128.615 130.693 133.64 130.693 139.838C130.693 146.036 134.372 151.061 138.911 151.061C143.449 151.061 147.128 146.036 147.128 139.838C147.128 133.64 143.449 128.615 138.911 128.615ZM118.893 102.783C114.471 102.783 110.886 106.036 110.886 110.049C110.886 114.062 114.471 117.315 118.893 117.315C123.316 117.315 126.901 114.062 126.901 110.049C126.901 106.036 123.316 102.783 118.893 102.783ZM165.519 41.1672C161.096 41.1672 157.511 44.42 157.511 48.4328C157.511 52.4456 161.096 55.6984 165.519 55.6984C169.942 55.6984 173.527 52.4456 173.527 48.4328C173.527 44.42 169.942 41.1672 165.519 41.1672ZM149.503 19.993C145.081 19.993 141.495 23.2458 141.495 27.2586C141.495 31.2714 145.081 34.5242 149.503 34.5242C153.926 34.5242 157.511 31.2714 157.511 27.2586C157.511 23.2458 153.926 19.993 149.503 19.993ZM149.503 220.495C145.081 220.495 141.495 223.748 141.495 227.761C141.495 231.774 145.081 235.026 149.503 235.026C153.926 235.026 157.511 231.774 157.511 227.761C157.511 223.748 153.926 220.495 149.503 220.495Z" fill="#007E4B"/>
<path d="M122.757 302.558C95.7859 304.261 65.4347 283.317 43.8752 264.802C62.4005 243.755 90.2949 236.865 117.266 235.162C144.237 233.459 170.689 248.005 192.249 266.521C173.723 287.566 149.728 300.855 122.757 302.558Z" fill="#00B972"/>
<path d="M230.77 256.291C193.57 274.323 129.586 283.231 88.1387 276.15C84.8787 275.595 82.7342 272.744 83.3476 269.787C83.961 266.829 87.1017 264.884 90.3609 265.44C129.518 272.13 189.966 263.714 225.11 246.679C227.016 245.755 229.223 245.858 230.964 246.776C231.895 247.267 232.692 247.992 233.237 248.917C234.8 251.571 233.696 254.873 230.77 256.291Z" fill="#009B5E"/>
<path d="M379.511 251.037C379.511 303.877 332.095 346.669 273.762 346.297C216.026 345.929 169.129 302.753 169.527 250.367C169.635 236.075 173.213 222.531 179.534 210.392C187.219 195.633 192.773 180.062 196.85 164.164C207.328 123.298 238.14 93.6959 274.518 93.6959C311.154 93.6959 342.144 123.717 352.406 165.031C356.355 180.93 362.344 196.327 369.879 211.122C376.062 223.262 379.511 236.784 379.511 251.037Z" fill="#E7E39E"/>
<path d="M379.511 251.037C379.511 290.129 353.559 323.721 316.434 338.404C286.218 326.426 281.981 311.112 274.477 281.443C272.7 274.415 253.132 257.873 253.188 250.368C253.297 236.075 256.874 222.531 263.195 210.392C266.322 204.388 272.012 200.67 274.477 194.429C278.071 185.331 278.093 173.595 280.51 164.164C286.583 140.477 299.488 120.575 316.348 108.028C333.413 120.728 346.426 140.963 352.404 165.031C356.353 180.93 362.342 196.327 369.877 211.122C376.061 223.262 379.511 236.784 379.511 251.037Z" fill="#F1EEC7"/>
<path d="M375.33 208.836C367.704 193.863 361.963 178.721 358.264 163.833C352.922 142.329 342.336 123.737 327.651 110.067C312.317 95.7922 293.943 88.2461 274.516 88.2461C255.23 88.2461 236.961 95.6934 221.687 109.784C207.067 123.271 196.454 141.648 190.998 162.929C186.685 179.747 181.159 194.51 174.101 208.064C167.192 221.334 163.631 235.554 163.519 250.329C163.098 305.86 212.533 351.355 273.718 351.746C273.987 351.747 274.254 351.748 274.523 351.748C304.028 351.747 331.774 341.378 352.726 322.502C373.869 303.452 385.514 278.072 385.514 251.037C385.517 236.307 382.089 222.108 375.33 208.836ZM344.264 314.769C325.409 331.756 300.377 341.047 273.805 340.847C219.241 340.499 175.157 299.927 175.532 250.405C175.632 237.226 178.805 224.546 184.963 212.719C192.388 198.458 198.191 182.978 202.698 165.398C212.858 125.77 241.72 99.1446 274.517 99.1446C307.115 99.1446 336.734 126.731 346.546 166.228C350.43 181.865 356.445 197.738 364.425 213.407C370.449 225.236 373.504 237.896 373.504 251.037C373.505 275.146 363.12 297.78 344.264 314.769Z" fill="#006E42"/>
<path d="M311.973 237.936C311.973 262.012 294.047 281.53 271.934 281.53C249.821 281.53 231.895 262.012 231.895 237.936C231.895 213.86 249.821 194.342 271.934 194.342C294.047 194.342 311.973 213.86 311.973 237.936Z" fill="#F46B38"/>
<path d="M258.615 237.936C258.615 255.698 264.84 271.477 274.478 281.443C273.637 281.501 272.789 281.53 271.934 281.53C249.821 281.53 231.895 262.012 231.895 237.936C231.895 213.86 249.821 194.342 271.934 194.342C272.789 194.342 273.637 194.371 274.478 194.429C264.84 204.395 258.615 220.175 258.615 237.936Z" fill="#E75920"/>
<path d="M224.524 184.58C229.086 184.58 232.784 181.402 232.784 177.481C232.784 173.56 229.086 170.382 224.524 170.382C219.962 170.382 216.264 173.56 216.264 177.481C216.264 181.402 219.962 184.58 224.524 184.58Z" fill="#FFB0D0"/>
<path d="M319.139 184.58C323.701 184.58 327.399 181.402 327.399 177.481C327.399 173.56 323.701 170.382 319.139 170.382C314.577 170.382 310.879 173.56 310.879 177.481C310.879 181.402 314.577 184.58 319.139 184.58Z" fill="#FFB0D0"/>
<path d="M271.831 183.16C268.406 183.16 264.98 181.917 262.122 179.431C259.471 177.125 259.044 172.923 261.167 170.045C263.291 167.166 267.162 166.703 269.813 169.008C271.001 170.042 272.661 170.042 273.85 169.008C276.5 166.703 280.371 167.166 282.496 170.045C284.619 172.923 284.192 177.125 281.541 179.431C278.683 181.917 275.258 183.16 271.831 183.16Z" fill="#383842"/>
<path d="M238.807 161.652C242.578 161.652 246.077 162.476 248.963 163.881C251.909 165.316 255.311 164.027 255.311 158.27C255.311 149.576 248.078 142.525 239.804 142.016C230.219 141.425 222.271 149.404 222.271 159.329C222.271 164.601 225.6 165.477 228.108 164.156C231.093 162.583 234.795 161.652 238.807 161.652Z" fill="white"/>
<path d="M238.791 162.817C241.816 162.817 244.648 163.505 247.08 164.702C247.545 163.35 247.802 161.863 247.802 160.298C247.802 154.105 243.768 149.084 238.791 149.084C233.815 149.084 229.78 154.105 229.78 160.298C229.78 161.863 230.038 163.349 230.503 164.702C232.934 163.505 235.766 162.817 238.791 162.817Z" fill="#383842"/>
<path d="M304.887 161.652C308.659 161.652 312.158 162.476 315.044 163.881C317.99 165.316 321.392 164.027 321.392 158.27C321.392 149.576 314.159 142.525 305.884 142.016C296.3 141.425 288.352 149.404 288.352 159.329C288.352 164.601 291.68 165.477 294.188 164.156C297.174 162.583 300.876 161.652 304.887 161.652Z" fill="white"/>
<path d="M304.872 162.817C307.897 162.817 310.729 163.505 313.16 164.702C313.626 163.35 313.883 161.863 313.883 160.298C313.883 154.105 309.848 149.084 304.872 149.084C299.895 149.084 295.861 154.105 295.861 160.298C295.861 161.863 296.118 163.349 296.583 164.702C299.015 163.505 301.847 162.817 304.872 162.817Z" fill="#383842"/>
<path d="M271.831 174.641C267.684 174.641 264.322 177.532 264.322 181.096C264.322 181.22 264.336 181.341 264.344 181.462C266.718 182.586 269.272 183.16 271.831 183.16C274.391 183.16 276.945 182.586 279.319 181.462C279.327 181.341 279.341 181.22 279.341 181.096C279.341 177.532 275.978 174.641 271.831 174.641Z" fill="#FF737D"/>
</svg>
