<svg width="80" height="80" viewBox="0 0 80 80" fill="none" xmlns="http://www.w3.org/2000/svg">
<g clip-path="url(#clip0)">
<path d="M75.9651 6.67683C78.689 9.39915 78.689 13.8142 75.9651 16.5365L72.4427 20.0589L60.2437 7.85977L63.766 4.3374C66.4899 1.6143 70.9049 1.6143 73.628 4.3374L75.9651 6.67683Z" fill="#9A3A9D"/>
<path d="M72.4427 20.0589L40.5359 51.968H40.5336L28.3345 39.7689L60.2436 7.85977L72.4427 20.0589Z" fill="#179FB5"/>
<path d="M28.3346 39.7689L40.5337 51.968L40.4201 52.0816L23.5476 56.7558L28.221 39.8825L28.3346 39.7689Z" fill="#400041"/>
<path d="M73.8335 50.2527C72.7331 50.2527 71.8412 51.1445 71.8412 52.245V69.9346C71.8373 73.2344 69.164 75.9077 65.8642 75.9116H9.96162C6.66183 75.9077 3.98854 73.2344 3.98465 69.9346V18.0167C3.98854 14.7177 6.66183 12.0436 9.96162 12.0397H27.6513C28.7517 12.0397 29.6436 11.1479 29.6436 10.0474C29.6436 8.94696 28.7517 8.05508 27.6513 8.05508H9.96162C4.46249 8.06131 0.00622601 12.5176 0 18.0167V69.9346C0.00622601 75.4338 4.46249 79.89 9.96162 79.8963H65.8642C71.3633 79.89 75.8196 75.4338 75.8258 69.9346V52.245C75.8258 51.1445 74.934 50.2527 73.8335 50.2527Z" fill="#400041"/>
<path d="M75.0375 2.92875C71.533 -0.567153 65.8611 -0.567153 62.3574 2.92875L26.8123 38.4738C26.5695 38.7174 26.3929 39.0194 26.301 39.3502L21.6276 56.2234C21.4354 56.9153 21.6307 57.6562 22.1382 58.1644C22.6464 58.6718 23.3873 58.8672 24.0791 58.6757L40.9524 54.0015C41.2839 53.9097 41.5867 53.733 41.8303 53.4894L41.9431 53.3758L77.3738 17.9451C80.8752 14.4445 80.8752 8.76875 77.3738 5.26818L75.0375 2.92875ZM29.2786 43.5301L36.7724 51.0247L26.4061 53.8965L29.2786 43.5301ZM40.5353 51.9687V51.9672L41.8342 53.2661L40.5353 51.9687ZM40.5353 49.1515L31.1527 39.7689L60.2437 10.6778L69.6255 20.0589L40.5353 49.1515ZM74.5565 15.1278L72.4428 17.2416L63.0618 7.85976L65.1755 5.74603C67.1211 3.80429 70.2723 3.80429 72.2187 5.74603L74.5565 8.08623C76.5022 10.0303 76.5022 13.1838 74.5565 15.1278Z" fill="#400041"/>
</g>
<defs>
<clipPath id="clip0">
<rect width="80" height="80" fill="white"/>
</clipPath>
</defs>
</svg>
