<svg width="94" height="97" viewBox="0 0 94 97" fill="none" xmlns="http://www.w3.org/2000/svg">
<path d="M47 0C21.0843 0 0 21.7574 0 48.5C0 75.2428 21.0843 97 47 97C72.9157 97 94 75.2428 94 48.5C94 21.7574 72.9157 0 47 0Z" fill="#9A3A9D"/>
<path d="M47 0V97C72.9157 97 94 75.2428 94 48.5C94 21.7574 72.9157 0 47 0Z" fill="#400041"/>
<path d="M47 79.3636C32.0226 79.3636 19.8376 66.79 19.8376 51.3348C19.8376 44.4483 22.2811 37.8271 26.7176 32.6901C28.2883 30.8717 30.9889 30.7122 32.7505 32.3324C34.5123 33.9526 34.6672 36.7395 33.0975 38.5575C30.0574 42.0771 28.3832 46.6147 28.3832 51.3348C28.3832 61.9279 36.7347 70.5455 47 70.5455C57.2653 70.5455 65.6168 61.9279 65.6168 51.3348C65.6168 46.6144 63.9427 42.0771 60.9028 38.5579C59.3323 36.7399 59.4877 33.953 61.2494 32.3324C63.0106 30.7118 65.7115 30.8719 67.2819 32.6901C71.7187 37.8264 74.1621 44.448 74.1621 51.3348C74.1623 66.79 61.9774 79.3636 47 79.3636Z" fill="#FCFCB4"/>
<path d="M46.9998 45.3505C44.6401 45.3505 42.7271 43.3768 42.7271 40.9414V22.0455C42.7271 19.6108 44.6401 17.6364 46.9998 17.6364C49.3596 17.6364 51.2726 19.6108 51.2726 22.0455V40.9414C51.2726 43.3766 49.3596 45.3505 46.9998 45.3505Z" fill="#FCFCB4"/>
<path d="M67.2822 32.6901C65.7119 30.8717 63.0109 30.7122 61.2497 32.3324C59.4879 33.9528 59.333 36.7397 60.9031 38.5579C63.943 42.0771 65.617 46.6144 65.617 51.3348C65.617 61.9278 57.2655 70.5455 47.0002 70.5455V79.3636C61.9776 79.3636 74.1626 66.79 74.1626 51.3348C74.1624 44.448 71.7189 37.8264 67.2822 32.6901Z" fill="#FFEA00"/>
<path d="M51.2728 40.9414V22.0455C51.2728 19.6108 49.3597 17.6364 47 17.6364V45.3505C49.3597 45.3505 51.2728 43.3766 51.2728 40.9414Z" fill="#FFEA00"/>
</svg>
